<svg
  version="2"
  viewBox="0 0 100 100"
  xmlns="http://www.w3.org/2000/svg"
>
  <style>
    svg > g {
      display: none;
    }

    svg > g:target {
      display: block;
    }
  </style>

  <rect x="0" y="0" width="100" height="100" fill="#eee"/>
  <g id="first">
    <polygon points="15,25 35,25 35,75 15,75"/>
    <polygon points="35,50 85,25 85,75"/>
  </g>
  <g id="prev">
    <polygon points="0,50 50,25 50,75"/>
    <polygon points="50,50 100,25 100,75"/>
  </g>
  <g id="next">
    <polygon points="0,25 50,50 0,75"/>
    <polygon points="50,25 100,50 50,75"/>
  </g>
  <g id="last">
    <polygon points="15,25 65,50 15,75"/>
    <polygon points="65,25 85,25 85,75 65,75"/>
  </g>
  <g id="play">
    <polygon points="25,20 45,20 45,80 25,80"/>
    <polygon points="55,20 75,20 75,80 55,80"/>
  </g>
  <g id="pause">
    <polygon points="20,20 80,50 20,80"/>
  </g>
</svg>